<?xml version="1.0" standalone="no"?>
<!DOCTYPE svg PUBLIC "-//W3C//DTD SVG 20010904//EN"
 "http://www.w3.org/TR/2001/REC-SVG-20010904/DTD/svg10.dtd">
<svg version="1.0" xmlns="http://www.w3.org/2000/svg"
 width="512.000000pt" height="512.000000pt" viewBox="0 0 512.000000 512.000000"
 preserveAspectRatio="xMidYMid meet">

<g transform="translate(0.000000,512.000000) scale(0.100000,-0.100000)"
fill="#000000" stroke="none">
<path d="M1060 3226 l0 -466 65 0 65 0 0 396 0 396 358 -4 c329 -4 363 -6 437
-26 177 -49 279 -122 343 -247 35 -68 36 -73 36 -185 0 -109 -1 -118 -31 -175
-17 -33 -50 -81 -73 -107 l-42 -48 80 0 80 0 31 49 c70 108 96 261 72 408 -30
177 -125 284 -344 388 -149 70 -197 76 -669 82 l-408 5 0 -466z"/>
<path d="M2712 3623 l3 -68 383 -3 382 -2 0 -395 0 -395 60 0 60 0 0 395 0
395 353 2 352 3 3 68 3 67 -801 0 -801 0 3 -67z"/>
<path d="M2025 2658 c-35 -20 -44 -41 -45 -96 0 -67 29 -102 85 -102 55 0 85
35 85 99 0 37 -6 56 -22 75 -27 30 -74 41 -103 24z m85 -37 c16 -31 12 -102
-7 -123 -38 -42 -96 -7 -96 60 0 58 17 82 58 82 24 0 38 -6 45 -19z"/>
<path d="M1742 2563 l3 -98 48 -3 c58 -4 97 17 97 52 0 13 -7 29 -15 36 -12
10 -12 15 2 36 14 22 14 26 -1 49 -15 22 -23 25 -77 25 l-60 0 3 -97z m113 48
c0 -18 -8 -27 -28 -34 -39 -13 -57 -3 -57 33 0 30 1 31 43 28 37 -3 42 -6 42
-27z m3 -90 c4 -29 -12 -41 -55 -41 -31 0 -33 2 -33 36 l0 35 43 -3 c36 -3 43
-7 45 -27z"/>
<path d="M2240 2560 c0 -118 18 -136 22 -22 l3 77 32 -45 c43 -62 87 -110 101
-110 8 0 12 31 12 100 0 82 -3 100 -15 100 -12 0 -15 -14 -15 -70 0 -65 -1
-69 -18 -59 -10 6 -35 38 -56 70 -56 86 -66 80 -66 -41z"/>
<path d="M2590 2651 c0 -6 15 -11 33 -13 l32 -3 3 -87 c4 -116 22 -114 22 2
l0 90 30 0 c17 0 30 5 30 10 0 6 -32 10 -75 10 -41 0 -75 -4 -75 -9z"/>
<path d="M2830 2560 c0 -82 3 -100 15 -100 12 0 15 18 15 100 0 82 -3 100 -15
100 -12 0 -15 -18 -15 -100z"/>
<path d="M2950 2561 c0 -82 3 -101 15 -101 11 0 15 17 17 73 l3 72 26 -70 c14
-39 32 -70 39 -70 8 0 26 33 41 75 l28 75 0 -77 c1 -62 4 -78 16 -78 12 0 15
18 15 100 0 92 -2 100 -19 100 -15 0 -26 -17 -48 -75 -15 -41 -30 -75 -33 -75
-4 0 -18 33 -32 73 -20 56 -30 73 -47 75 -20 3 -21 0 -21 -97z"/>
<path d="M3252 2563 l3 -98 68 -3 c42 -2 67 1 67 8 0 6 -23 10 -55 10 l-55 0
0 35 c0 35 0 35 45 35 57 0 59 18 3 22 -40 3 -43 5 -46 36 l-3 32 50 0 c28 0
51 5 51 10 0 6 -28 10 -65 10 l-66 0 3 -97z"/>
<path d="M1060 1895 l0 -465 349 0 c414 0 605 15 696 55 256 113 305 149 378
275 36 63 59 168 60 275 1 107 -14 178 -56 263 l-30 62 -88 0 c-49 0 -89 -4
-89 -8 0 -4 21 -28 46 -52 25 -25 54 -64 64 -88 44 -99 45 -282 2 -383 -24
-56 -112 -137 -187 -173 -148 -70 -277 -86 -697 -86 l-318 0 0 395 0 395 -65
0 -65 0 0 -465z"/>
<path d="M3480 1895 l0 -465 60 0 60 0 0 465 0 465 -60 0 -60 0 0 -465z"/>
</g>
</svg>
